<?xml version="1.0" ?><svg viewBox="0 0 64 64" xmlns="http://www.w3.org/2000/svg"><title/><g id="Laptop"><path d="M52,33H12a1,1,0,0,1-1-1V4a1,1,0,0,1,1-1H52a1,1,0,0,1,1,1V32A1,1,0,0,1,52,33ZM13,31H51V5H13Z"/><path d="M44.91,30H19.09A4.1,4.1,0,0,1,15,25.91V11.42A5.42,5.42,0,0,1,20.42,6H43.58A5.42,5.42,0,0,1,49,11.42V25.91A4.1,4.1,0,0,1,44.91,30ZM20.42,8A3.42,3.42,0,0,0,17,11.42V25.91A2.1,2.1,0,0,0,19.09,28H44.91A2.1,2.1,0,0,0,47,25.91V11.42A3.42,3.42,0,0,0,43.58,8Z"/><path d="M60,46H4a1,1,0,0,1-.87-.51,1,1,0,0,1,0-1l8-13a1,1,0,1,1,1.7,1L5.79,44H58.21L51.15,32.52a1,1,0,0,1,1.7-1l8,13a1,1,0,0,1,0,1A1,1,0,0,1,60,46Z"/><path d="M60,49H4a1,1,0,0,1-1-1V45a1,1,0,0,1,2,0v2H59V45a1,1,0,0,1,2,0v3A1,1,0,0,1,60,49Z"/><path d="M36,43.5H28a1,1,0,0,1-.86-.5,1,1,0,0,1,0-1l2-3.5A1,1,0,0,1,30,38h4a1,1,0,0,1,.87.5l2,3.5a1,1,0,0,1,0,1A1,1,0,0,1,36,43.5Zm-6.28-2h4.56L33.42,40H30.58Z"/></g></svg>